<svg version="1.1" xmlns="http://www.w3.org/2000/svg" xmlns:xlink="http://www.w3.org/1999/xlink" viewBox="0 0 550 470">
   <g fill="currentColor" fill-rule="none" stroke="none" stroke-width="1" stroke-linecap="butt" stroke-linejoin="miter" stroke-miterlimit="10" stroke-dasharray="" stroke-dashoffset="0" font-family="none" font-weight="none" font-size="none" text-anchor="none" style="mix-blend-mode: normal">
      <g data-paper-data="{&quot;isGlobalGroup&quot;:true,&quot;bounds&quot;:{&quot;x&quot;:146,&quot;y&quot;:105.99999999999999,&quot;width&quot;:258,&quot;height&quot;:258}}">
         <g data-paper-data="{&quot;fillRule&quot;:&quot;nonzero&quot;,&quot;fillRuleOriginal&quot;:&quot;evenodd&quot;,&quot;isIcon&quot;:true,&quot;iconStyle&quot;:&quot;standalone&quot;,&quot;selectedEffects&quot;:{&quot;container&quot;:&quot;circle_simple_filled&quot;,&quot;transformation&quot;:&quot;&quot;,&quot;pattern&quot;:&quot;&quot;},&quot;bounds&quot;:{&quot;x&quot;:198.92328174552273,&quot;y&quot;:158.92328174552273,&quot;width&quot;:152.15381689349675,&quot;height&quot;:152.15381689349675},&quot;widthRatioIconToContainer&quot;:0.6739812464533312,&quot;heightRatioIconToContainer&quot;:0.6739812464533311,&quot;relativeBoundsIconToContainer&quot;:{&quot;top&quot;:4.275996483223899e-17,&quot;left&quot;:1.2827989449671695e-16},&quot;iconType&quot;:&quot;icon&quot;,&quot;rawIconId&quot;:&quot;4317b784-e6e6-4cc4-ba8e-73c85e3d2517&quot;,&quot;isSvgStockIcon&quot;:true,&quot;combineTerms&quot;:&quot;crypto&quot;,&quot;combineTermsExtended&quot;:{&quot;icon&quot;:[&quot;crypto&quot;]},&quot;isDetailed&quot;:false,&quot;blockLetter&quot;:&quot;O&quot;,&quot;suitableAsStandaloneIcon&quot;:true}" fill-rule="nonzero">
            <path d="M198.92328,235.00019c0,-42.01611 34.0608,-76.07691 76.07691,-76.07691c42.01611,0 76.07691,34.0608 76.07691,76.07691c0,42.01611 -34.0608,76.07691 -76.07691,76.07691c-42.01611,0 -76.07691,-34.0608 -76.07691,-76.07691zM281.15312,193.98066v6.15293h-12.30586v-6.15293c0,-5.65455 -4.60034,-10.25488 -10.25488,-10.25488h-24.61172c-5.65455,0 -10.25488,4.60034 -10.25488,10.25488v24.61172c0,5.65455 4.60034,10.25488 10.25488,10.25488h6.15293v12.30586h-6.15293c-5.65455,0 -10.25488,4.60034 -10.25488,10.25488v24.61172c0,5.65455 4.60034,10.25488 10.25488,10.25488h24.61172c5.65455,0 10.25488,-4.60034 10.25488,-10.25488v-6.15293h12.30586v6.15293c0,5.65455 4.60034,10.25488 10.25488,10.25488h24.61172c5.65455,0 10.25488,-4.60034 10.25488,-10.25488v-24.61172c0,-5.65455 -4.60034,-10.25488 -10.25488,-10.25488h-6.15293v-12.30586h6.15293c5.65455,0 10.25488,-4.60034 10.25488,-10.25488v-24.61172c0,-5.65455 -4.60034,-10.25488 -10.25488,-10.25488h-24.61172c-5.65455,0 -10.25488,4.60034 -10.25488,10.25488zM233.98066,187.82774h24.61172c3.39231,0 6.15293,2.76062 6.15293,6.15293v6.15293h-10.26309c-1.92382,-2.55347 -4.95926,-4.10195 -8.1957,-4.10195c-5.65455,0 -10.25488,4.60034 -10.25488,10.25488c0,5.65455 4.60034,10.25488 10.25488,10.25488c3.23439,0 6.27189,-1.54848 8.1957,-4.10195h10.26309v6.15293c0,3.39231 -2.76062,6.15293 -6.15293,6.15293h-8.20391c-1.13214,0 -2.05097,0.91679 -2.05097,2.05097v29.73916c0,0.07589 0.03487,0.13946 0.04307,0.21125c0.01436,0.19689 0.04512,0.38558 0.11485,0.57017c0.00615,0.01436 0.01436,0.02666 0.02051,0.04307c0.16408,0.41019 0.43276,0.78347 0.84706,1.02344c1.89715,1.09727 3.07647,3.14004 3.07647,5.33253c0,3.39231 -2.76062,6.15293 -6.15293,6.15293c-3.39231,0 -6.15293,-2.76062 -6.15293,-6.15293c0,-2.19044 1.17931,-4.23322 3.07647,-5.33253c0.41225,-0.23792 0.68093,-0.61119 0.84706,-1.02344c0.00615,-0.01436 0.01436,-0.02666 0.02051,-0.04307c0.06973,-0.18459 0.1005,-0.37328 0.11485,-0.57017c0.0082,-0.07179 0.04307,-0.13536 0.04307,-0.21125v-29.73916c0,-1.13419 -0.91883,-2.05097 -2.05097,-2.05097h-8.20391c-3.39231,0 -6.15293,-2.76062 -6.15293,-6.15293v-24.61172c0,-3.39231 2.76062,-6.15293 6.15293,-6.15293zM309.86679,224.74531v-10.26513c2.55347,-1.92176 4.10195,-4.95926 4.10195,-8.19365c0,-5.65455 -4.60034,-10.25488 -10.25488,-10.25488c-5.65455,0 -10.25488,4.60034 -10.25488,10.25488c0,3.23439 1.54848,6.27189 4.10195,8.19365v10.26513h-6.15293c-3.39231,0 -6.15293,-2.76062 -6.15293,-6.15293v-24.61172c0,-3.39231 2.76062,-6.15293 6.15293,-6.15293h24.61172c3.39231,0 6.15293,2.76062 6.15293,6.15293v24.61172c0,3.39231 -2.76062,6.15293 -6.15293,6.15293zM253.25779,208.37851c-0.201,0.01436 -0.39174,0.04512 -0.57837,0.11691c-0.01026,0.0041 -0.02051,0.01026 -0.03077,0.01436c-0.4143,0.16408 -0.78963,0.43481 -1.02959,0.8491c-1.09933,1.90125 -3.1421,3.08057 -5.33253,3.08057c-3.39231,0 -6.15293,-2.76062 -6.15293,-6.15293c0,-3.39231 2.76062,-6.15293 6.15293,-6.15293c2.19044,0 4.23322,1.17931 5.33049,3.07851c0.23996,0.4143 0.61529,0.68503 1.02959,0.8491c0.01231,0.00615 0.02256,0.01231 0.03487,0.01641c0.18664,0.06973 0.37738,0.10255 0.57837,0.11691c0.06973,0.00615 0.13126,0.04102 0.2051,0.04102h27.68818v4.10195h-27.68818c-0.07383,0 -0.13536,0.03487 -0.20715,0.04102zM291.408,282.17264c-3.39231,0 -6.15293,-2.76062 -6.15293,-6.15293v-6.15293h10.26309c1.92382,2.55347 4.95926,4.10195 8.1957,4.10195c5.65455,0 10.25488,-4.60034 10.25488,-10.25488c0,-5.65455 -4.60034,-10.25488 -10.25488,-10.25488c-3.23439,0 -6.27189,1.54848 -8.1957,4.10195h-10.26309v-8.20391c0,-2.26223 1.83972,-4.10195 4.10195,-4.10195h10.25488c1.13214,0 2.05097,-0.91679 2.05097,-2.05097v-29.73916c0,-0.07589 -0.03487,-0.13946 -0.04307,-0.21125c-0.01436,-0.19689 -0.04512,-0.38558 -0.11485,-0.57017c-0.00615,-0.01436 -0.01436,-0.02871 -0.02051,-0.04307c-0.16408,-0.41019 -0.43276,-0.78347 -0.845,-1.02139c-1.89921,-1.09933 -3.07851,-3.1421 -3.07851,-5.33253c0,-3.39231 2.76062,-6.15293 6.15293,-6.15293c3.39231,0 6.15293,2.76062 6.15293,6.15293c0,2.19044 -1.17931,4.23322 -3.07647,5.33253c-0.41225,0.23792 -0.68093,0.61119 -0.845,1.02139c-0.00615,0.01436 -0.01436,0.02666 -0.02051,0.04307c-0.06973,0.18459 -0.1005,0.37328 -0.11485,0.57017c-0.01026,0.07179 -0.04512,0.13536 -0.04512,0.21125v29.73916c0,1.13419 0.91883,2.05097 2.05097,2.05097h8.20391c3.39231,0 6.15293,2.76062 6.15293,6.15293v24.61172c0,3.39231 -2.76062,6.15293 -6.15293,6.15293zM268.84726,257.56093v-6.15293c0,-5.65455 -4.60034,-10.25488 -10.25488,-10.25488h-6.15293v-12.30586h6.15293c5.65455,0 10.25488,-4.60034 10.25488,-10.25488v-6.15293h12.30586v6.15293c0,5.65455 4.60034,10.25488 10.25488,10.25488h6.15293v12.30586h-8.20391c-4.52445,0 -8.20391,3.67945 -8.20391,8.20391v8.20391zM233.98066,282.17264c-3.39231,0 -6.15293,-2.76062 -6.15293,-6.15293v-24.61172c0,-3.39231 2.76062,-6.15293 6.15293,-6.15293h6.15293v10.26513c-2.55347,1.92176 -4.10195,4.95926 -4.10195,8.19365c0,5.65455 4.60034,10.25488 10.25488,10.25488c5.65455,0 10.25488,-4.60034 10.25488,-10.25488c0,-3.23439 -1.54848,-6.27189 -4.10195,-8.19365v-10.26513h6.15293c3.39231,0 6.15293,2.76062 6.15293,6.15293v8.20391c0,1.13419 0.91883,2.05097 2.05097,2.05097h29.73916c0.07179,0 0.13332,-0.03487 0.2051,-0.04102c0.201,-0.01436 0.39174,-0.04512 0.58043,-0.11691c0.01026,-0.0041 0.02051,-0.01026 0.03077,-0.01436c0.4143,-0.16408 0.78963,-0.43481 1.02959,-0.8491c1.09933,-1.90125 3.1421,-3.08057 5.33253,-3.08057c3.39231,0 6.15293,2.76062 6.15293,6.15293c0,3.39231 -2.76062,6.15293 -6.15293,6.15293c-2.19044,0 -4.23322,-1.17931 -5.33049,-3.07851c-0.23996,-0.4143 -0.61529,-0.68297 -1.02754,-0.84706c-0.01231,-0.00615 -0.02256,-0.01231 -0.03692,-0.01846c-0.18869,-0.07179 -0.37738,-0.10255 -0.57837,-0.11691c-0.07179,-0.00615 -0.13332,-0.04102 -0.2051,-0.04102h-29.73916c-1.13214,0 -2.05097,0.91679 -2.05097,2.05097v8.20391c0,3.39231 -2.76062,6.15293 -6.15293,6.15293z" data-paper-data="{&quot;isPathIcon&quot;:true}"></path>
         </g>
         <g data-paper-data="{&quot;isPrimaryText&quot;:true}" fill-rule="nonzero">
            <path d="M187.91801,226.68857l-23.66638,-4.19257l1.23311,-6.9607c0.18908,-1.06731 0.50159,-1.98711 0.93754,-2.75942c0.4496,-0.78185 1.02095,-1.44043 1.71405,-1.97573c0.69309,-0.5353 1.47923,-0.88661 2.3584,-1.05393c0.89077,-0.16526 1.86981,-0.15335 2.93712,0.03573c0.91649,0.16236 1.75032,0.45366 2.50147,0.87389c0.73955,0.41818 1.40019,0.97793 1.9819,1.67924c0.57627,0.66446 0.95453,1.46733 1.13477,2.40862c0.1939,0.93174 0.18603,1.98927 -0.0236,3.17259l-0.71212,4.0198l10.12782,1.79417zM175.86062,221.50143l0.52099,-2.9409c0.26306,-1.48495 0.15777,-2.74799 -0.31588,-3.78912c-0.47159,-1.05273 -1.51947,-1.72296 -3.14364,-2.01068c-1.83298,-0.32472 -3.19454,0.13404 -4.08466,1.37629c-0.47751,0.66922 -0.82827,1.63609 -1.05229,2.90062l-0.52099,2.9409z" data-paper-data="{&quot;glyphName&quot;:&quot;P&quot;,&quot;glyphIndex&quot;:0,&quot;firstGlyphOfWord&quot;:true,&quot;word&quot;:1}"></path>
            <path d="M193.56209,203.00874l-21.6043,-10.57256l6.09029,-12.44509l2.39695,1.173l-4.80854,9.82591l6.921,3.38695l4.3269,-8.84173l2.26996,1.11086l-4.3269,8.84173l7.68294,3.75982l4.91729,-10.04814l2.33346,1.14193z" data-paper-data="{&quot;glyphName&quot;:&quot;E&quot;,&quot;glyphIndex&quot;:1,&quot;word&quot;:1}"></path>
            <path d="M198.96079,153.56295c0.04863,-0.03527 0.12574,-0.08835 0.23132,-0.15923c0.10558,-0.07088 0.23713,-0.11777 0.39463,-0.14068c0.15751,-0.02291 0.33314,-0.00902 0.52691,0.04168c0.19377,0.05069 0.39883,0.17598 0.61518,0.37586c0.225,0.20787 0.36626,0.40655 0.42379,0.59604c0.05752,0.18949 0.07693,0.36381 0.05821,0.52296c-0.01871,0.15915 -0.05923,0.29416 -0.12154,0.40501c-0.06231,0.11085 -0.10946,0.18359 -0.14144,0.2182l-0.02399,0.02596l-4.48522,4.85484l15.70684,14.511l-2.13468,2.31059l-15.70684,-14.511l-4.48522,4.85484l-0.03598,0.03894c-0.03998,0.04327 -0.11492,0.09834 -0.22483,0.16523c-0.10991,0.06688 -0.24145,0.11377 -0.39463,0.14068c-0.15318,0.02691 -0.32665,0.01501 -0.52042,-0.03568c-0.19377,-0.05069 -0.39883,-0.17598 -0.61518,-0.37586c-0.225,-0.20787 -0.36843,-0.40855 -0.43028,-0.60203c-0.06185,-0.19348 -0.08342,-0.3698 -0.0647,-0.52896c0.01871,-0.15915 0.05923,-0.29416 0.12154,-0.40501c0.06231,-0.11085 0.10946,-0.18359 0.14144,-0.2182l0.02399,-0.02596l11.10511,-12.02028z" data-paper-data="{&quot;glyphName&quot;:&quot;T&quot;,&quot;glyphIndex&quot;:2,&quot;word&quot;:1}"></path>
            <path d="M225.08367,163.15714l-12.10286,-20.78571l11.97355,-6.97181l1.34279,2.30613l-9.4536,5.50453l3.87718,6.65876l8.50672,-4.95319l1.27164,2.18395l-8.50672,4.95319l4.30403,7.39183l9.66742,-5.62903l1.30722,2.24504z" data-paper-data="{&quot;glyphName&quot;:&quot;E&quot;,&quot;glyphIndex&quot;:3,&quot;word&quot;:1}"></path>
            <path d="M256.56728,139.05636c0.60808,0.47716 1.10822,1.38919 1.50042,2.73607l0.15254,0.52649l1.43274,5.61679c0.0092,0.1314 -0.00001,0.2979 -0.02762,0.49949c-0.02761,0.20159 -0.13386,0.39284 -0.31873,0.57374c-0.0996,0.0862 -0.2128,0.16675 -0.33961,0.24166c-0.1268,0.0749 -0.28724,0.13711 -0.48132,0.18661c-0.18266,0.04659 -0.34758,0.06738 -0.49477,0.06237c-0.14719,-0.00501 -0.28514,-0.0215 -0.41386,-0.04946c-0.28901,-0.08435 -0.49471,-0.22338 -0.61708,-0.41711c-0.12237,-0.19373 -0.20091,-0.3348 -0.23563,-0.42322l-1.4109,-5.53117c-0.4791,-1.59222 -1.34514,-2.5325 -2.59812,-2.82084c-0.35751,-0.06687 -0.78262,-0.07699 -1.27532,-0.03034c-0.4927,0.04665 -1.07583,0.15587 -1.74939,0.32769l-2.87689,0.73384l2.61213,10.24037l-2.94539,0.75131l-6.01488,-23.58026l6.30177,-1.60746c1.74669,-0.44555 3.26353,-0.55281 4.55052,-0.32178c1.21559,0.23708 2.20098,0.73959 2.95618,1.50752c0.76953,0.77643 1.32611,1.83821 1.66973,3.18532c0.35236,1.38137 0.35816,2.59579 0.0174,3.64328c-0.3665,1.04189 -0.99505,1.96217 -1.88565,2.76082l-0.23468,0.22401l0.31732,0.02849c1.02373,0.15227 1.82676,0.4642 2.40909,0.93577zM252.55484,136.268c0.73881,-0.86936 0.9,-2.12031 0.48357,-3.75283c-0.44555,-1.74669 -1.38066,-2.79094 -2.80535,-3.13275c-0.76942,-0.15635 -1.6907,-0.09765 -2.76383,0.17608l-3.42487,0.87362l2.15784,8.45944l3.01389,-0.76879c1.49553,-0.38148 2.60844,-0.99974 3.33875,-1.85477z" data-paper-data="{&quot;glyphName&quot;:&quot;R&quot;,&quot;glyphIndex&quot;:4,&quot;lastGlyphOfWord&quot;:true,&quot;word&quot;:1}"></path>
            <path d="M305.97966,140.99967c1.12609,1.40459 1.4352,3.10603 0.92732,5.10431c-0.31343,1.23323 -0.81461,2.24855 -1.50354,3.04596c-0.65738,0.76896 -1.49389,1.31005 -2.50954,1.62327c-2.03129,0.62643 -4.22878,0.63927 -6.59247,0.03853c-1.38167,-0.35116 -2.55279,-0.83723 -3.51335,-1.45821c-0.99191,-0.64111 -1.77472,-1.41141 -2.34843,-2.31092c-0.59074,-0.92815 -0.95408,-1.91399 -1.09002,-2.95752c-0.07242,-0.48035 -0.0832,-1.01189 -0.03234,-1.59463l0.00028,-0.07287l2.94604,0.74876l0.00407,0.05574c0.00353,0.56009 0.08582,1.07334 0.24687,1.53974c0.61886,1.77409 2.16723,2.97601 4.64511,3.60578c1.0962,0.27861 2.14884,0.36988 3.15793,0.27381c1.94385,-0.18671 3.12763,-1.11364 3.55135,-2.78078c0.31343,-1.23323 0.16298,-2.21966 -0.45135,-2.95931l-0.01713,-0.00435c-0.61162,-0.70249 -1.68599,-1.44964 -3.2231,-2.24147l-2.78469,-1.45537c-1.82801,-0.9387 -3.07201,-1.78368 -3.73202,-2.53493c-1.14369,-1.2875 -1.47901,-2.86188 -1.00596,-4.72314c0.51368,-2.02112 1.61536,-3.50987 3.30504,-4.46626c0.87339,-0.47094 1.81888,-0.74728 2.83648,-0.82903c0.52022,-0.03797 1.07025,-0.02582 1.65008,0.03645c0.57983,0.06227 1.17806,0.17177 1.79467,0.32849c2.29517,0.58333 4.10267,1.65054 5.4225,3.20162c0.65421,0.77409 1.0665,1.66296 1.23689,2.66662c0.03116,0.0687 0.04375,0.13876 0.03776,0.21018c0.01123,0.05148 0.0182,0.0958 0.02091,0.13296l0.02034,0.27869c-0.00328,0.10857 -0.01227,0.2157 -0.02697,0.32137c-0.0294,0.21134 -0.12451,0.41814 -0.28532,0.6204c-0.11476,0.11671 -0.25661,0.22046 -0.42556,0.31124c-0.16895,0.09078 -0.39635,0.14847 -0.6822,0.17307c-0.38591,0.03564 -0.68507,-0.00696 -0.89748,-0.12781c-0.21241,-0.12085 -0.37117,-0.26149 -0.47627,-0.42192c-0.12504,-0.17766 -0.20421,-0.39228 -0.23752,-0.64387l-0.01277,-0.02148l0.00435,-0.01713c-0.05829,-0.44029 -0.15247,-0.83499 -0.28255,-1.18412c-0.61168,-1.41972 -1.99659,-2.40384 -4.15474,-2.95235c-1.73565,-0.44113 -3.08323,-0.37639 -4.04273,0.19423c-0.9595,0.57061 -1.56985,1.36976 -1.83105,2.39745c-0.28441,1.11904 -0.04233,2.05583 0.72626,2.81036c0.51252,0.47064 1.73832,1.21982 3.67743,2.24753l2.90023,1.50297c1.39447,0.73126 2.4102,1.49391 3.04718,2.28793z" data-paper-data="{&quot;glyphName&quot;:&quot;S&quot;,&quot;glyphIndex&quot;:5,&quot;firstGlyphOfWord&quot;:true,&quot;word&quot;:2}"></path>
            <path d="M342.16401,147.76725c-0.00652,0.00981 -0.0725,0.15694 -0.19794,0.4414c-0.12543,0.28445 -0.29729,0.67598 -0.51558,1.17459c-0.21828,0.49861 -0.47811,1.08631 -0.77949,1.76312c-0.30138,0.6768 -0.6231,1.41082 -0.96517,2.20205c-0.34207,0.79123 -0.70696,1.62741 -1.09466,2.50856c-0.3877,0.88115 -0.77704,1.76475 -1.168,2.6508c-1.38139,3.14205 -2.94032,6.71077 -4.67677,10.70615l-2.39893,-1.59476l7.70726,-17.18013l-10.01383,7.49772l-2.51667,-1.67303l3.01329,-12.13032l-12.83384,13.75086l-2.44308,-1.62411c3.01196,-3.14745 5.70412,-5.96281 8.07648,-8.44609c0.6755,-0.6969 1.34446,-1.39461 2.00689,-2.09313c0.66243,-0.69852 1.29386,-1.36105 1.89429,-1.9876c0.60044,-0.62655 1.15682,-1.20811 1.66914,-1.74468c0.51233,-0.53657 0.95858,-1.00035 1.33875,-1.39133c0.38017,-0.39099 0.67713,-0.69935 0.89087,-0.9251c0.21374,-0.22575 0.32387,-0.34353 0.33039,-0.35334c0.10771,-0.09817 0.2636,-0.19967 0.4677,-0.30451c0.20409,-0.10483 0.44013,-0.14599 0.70811,-0.12346c0.31046,0.02247 0.63249,0.14459 0.96608,0.36635c0.18642,0.12393 0.3369,0.24872 0.45143,0.37438c0.11453,0.12566 0.2062,0.25379 0.27499,0.38441c0.08847,0.18614 0.1369,0.36335 0.14529,0.53163c0.00839,0.16827 -0.00367,0.31942 -0.03617,0.45344c-0.00652,0.00981 -0.05774,0.19859 -0.15366,0.56633c-0.09592,0.36774 -0.22354,0.85234 -0.38287,1.4538c-0.15933,0.60146 -0.34224,1.28628 -0.54874,2.05446c-0.20649,0.76818 -0.41706,1.54779 -0.63169,2.33886l-1.72682,6.36444l10.48353,-8.14044c0.11099,-0.08184 0.24406,-0.149 0.39921,-0.20148c0.15515,-0.05249 0.3324,-0.06906 0.53175,-0.04971c0.31046,0.02247 0.63249,0.14459 0.96608,0.36635c0.18642,0.12393 0.3369,0.24872 0.45143,0.37438c0.11453,0.12566 0.2062,0.25379 0.27499,0.38441c0.11796,0.24819 0.16565,0.48503 0.14307,0.71053c-0.02258,0.2255 -0.05829,0.4069 -0.10712,0.54421z" data-paper-data="{&quot;glyphName&quot;:&quot;M&quot;,&quot;glyphIndex&quot;:6,&quot;word&quot;:2}"></path>
            <path d="M359.6162,162.3201c0.02984,0.17735 0.02533,0.33778 -0.01353,0.48129c-0.03886,0.14351 -0.09101,0.26734 -0.15646,0.37149c-0.06656,0.12078 -0.15306,0.22769 -0.25951,0.32074l-17.32401,15.14372l-2.00055,-2.28858l17.35062,-15.16698c0.02661,-0.02326 0.07484,-0.0576 0.14469,-0.10301c0.06985,-0.04541 0.1602,-0.08526 0.27105,-0.11957c0.11085,-0.0343 0.23139,-0.05752 0.36163,-0.06965c0.13024,-0.01213 0.27292,0.00789 0.42807,0.06006c0.11414,0.04106 0.23519,0.10347 0.36317,0.18721c0.12797,0.08374 0.25787,0.20101 0.38969,0.35181c0.13182,0.1508 0.23067,0.29521 0.29655,0.43323c0.06588,0.13802 0.11541,0.27077 0.1486,0.39824z" data-paper-data="{&quot;glyphName&quot;:&quot;I&quot;,&quot;glyphIndex&quot;:7,&quot;word&quot;:2}"></path>
            <path d="M377.6045,191.53071c0.01647,0.05778 0.03989,0.1484 0.07028,0.27189c0.03039,0.12348 0.02934,0.26313 -0.00314,0.41895c-0.03248,0.15581 -0.10574,0.31604 -0.2198,0.48069c-0.11405,0.16465 -0.30205,0.31433 -0.56398,0.44904c-0.27241,0.1401 -0.50748,0.20469 -0.7052,0.19377c-0.19772,-0.01092 -0.36813,-0.05246 -0.51122,-0.1246c-0.14309,-0.07214 -0.25602,-0.15648 -0.3388,-0.25303c-0.08277,-0.09654 -0.13494,-0.16577 -0.15649,-0.20768l-0.01617,-0.03143l-3.02295,-5.87779l-19.01639,9.78013l-1.43873,-2.79745l19.01639,-9.78013l-3.02295,-5.87779l-0.02425,-0.04715c-0.02694,-0.05239 -0.05299,-0.14167 -0.07813,-0.26785c-0.02515,-0.12618 -0.0241,-0.26583 0.00314,-0.41895c0.02724,-0.15312 0.09789,-0.312 0.21194,-0.47665c0.11405,-0.16465 0.30205,-0.31433 0.56398,-0.44904c0.27241,-0.1401 0.5101,-0.20604 0.71306,-0.19781c0.20296,0.00823 0.37599,0.04842 0.51908,0.12056c0.14309,0.07214 0.25602,0.15648 0.3388,0.25303c0.08277,0.09654 0.13494,0.16577 0.15649,0.20768l0.01617,0.03143l7.48463,14.55304z" data-paper-data="{&quot;glyphName&quot;:&quot;T&quot;,&quot;glyphIndex&quot;:8,&quot;word&quot;:2}"></path>
            <path d="M385.70061,221.90411c-0.06606,0.16727 -0.1499,0.30179 -0.2515,0.40357c-0.10161,0.10178 -0.20733,0.18035 -0.31717,0.23573c-0.11938,0.06903 -0.24867,0.11589 -0.38788,0.14058l-22.65636,4.0178l-0.53077,-2.99301l11.22377,-1.99038l-1.41333,-7.96975l-11.22377,1.99038l-0.52768,-2.97561l22.65636,-4.0178c0.13921,-0.02469 0.27673,-0.02514 0.41257,-0.00137c0.12218,0.01423 0.24847,0.05166 0.37888,0.11229c0.13041,0.06063 0.25539,0.15813 0.37494,0.29248c0.07652,0.09412 0.15135,0.21247 0.2245,0.35505c0.07315,0.14258 0.12721,0.31248 0.16218,0.50969c0.03497,0.19721 0.04212,0.37244 0.02143,0.52568c-0.02069,0.15324 -0.04975,0.29301 -0.08718,0.4193c-0.11715,0.28402 -0.28028,0.47747 -0.48938,0.58037c-0.2091,0.10289 -0.35425,0.16154 -0.43546,0.17594l-8.89201,1.57688l1.41333,7.96975l8.89201,-1.57688c0.0348,-0.00617 0.09435,-0.00776 0.17864,-0.00476c0.08429,0.003 0.17934,0.01606 0.28515,0.03918c0.10581,0.02312 0.2176,0.06312 0.33538,0.12001c0.11778,0.05689 0.22859,0.14194 0.33242,0.25515c0.07652,0.09412 0.15135,0.21247 0.2245,0.35505c0.07315,0.14258 0.12721,0.31248 0.16218,0.50969c0.03497,0.19721 0.04263,0.37534 0.02297,0.53438c-0.01966,0.15904 -0.04923,0.29591 -0.08872,0.4106z" data-paper-data="{&quot;glyphName&quot;:&quot;H&quot;,&quot;glyphIndex&quot;:9,&quot;lastGlyphOfWord&quot;:true,&quot;word&quot;:2}"></path>
         </g>
         <g data-paper-data="{&quot;isSecondaryText&quot;:true}" fill-rule="nonzero">
            <path d="M199.25265,303.29085c-0.57897,0.54413 -0.39094,1.73036 0.36404,2.53369c0.76178,0.81056 2.10271,0.84514 2.95669,0.04255c0.84675,-0.79579 0.87158,-1.596 0.41262,-2.88198c-0.21993,-0.61107 -0.49183,-1.13242 0.02925,-1.62214c0.34015,-0.31968 0.94425,-0.31499 1.27753,0.03964c0.20405,0.21712 0.32718,0.55117 0.21759,0.91313c-0.06993,0.21564 -0.02754,0.43477 0.11529,0.58675c0.21765,0.23159 0.5899,0.23611 0.82149,0.01846c0.0579,-0.05441 0.10219,-0.1233 0.13968,-0.19942c0.30255,-0.69323 0.09683,-1.53572 -0.4201,-2.08575c-0.8298,-0.88294 -2.09329,-0.92214 -2.9907,-0.07873c-0.76714,0.72097 -0.78778,1.61265 -0.30275,2.73784c0.25568,0.5911 0.46794,1.22302 -0.08209,1.73994c-0.38357,0.36049 -1.02936,0.34045 -1.36264,-0.01417c-0.59854,-0.63687 0.00432,-1.2716 -0.43779,-1.74202c-0.17684,-0.18817 -0.51377,-0.19862 -0.73813,0.01223z" data-paper-data="{&quot;glyphName&quot;:&quot;S&quot;,&quot;glyphIndex&quot;:0,&quot;firstGlyphOfWord&quot;:true,&quot;word&quot;:1}"></path>
            <path d="M207.69993,308.4916c-1.36193,1.60573 -1.16527,3.99946 0.44046,5.36139c1.60573,1.36193 3.99946,1.16527 5.36139,-0.44046c1.36193,-1.60573 1.16527,-3.99946 -0.44046,-5.36139c-1.60573,-1.36193 -3.99946,-1.16527 -5.36139,0.44046zM208.57854,309.2368c0.94435,-1.11341 2.61774,-1.24384 3.73115,-0.29949c1.11341,0.94435 1.25026,2.61016 0.30591,3.72357c-0.94435,1.11341 -2.61659,1.25784 -3.73,0.31348c-1.11341,-0.94435 -1.25141,-2.62416 -0.30706,-3.73757z" data-paper-data="{&quot;glyphName&quot;:&quot;O&quot;,&quot;glyphIndex&quot;:1,&quot;word&quot;:1}"></path>
            <path d="M221.16211,318.83911c0.17707,-0.26392 0.09827,-0.62775 -0.14915,-0.79376l-1.74844,-1.17311c-0.03299,-0.02213 -0.04395,-0.04145 -0.01628,-0.08269l1.02924,-1.53401c0.0166,-0.02474 0.04145,-0.04395 0.08269,-0.01628l1.55875,1.04584c0.40412,0.27114 0.74572,0.26114 0.98366,-0.0935c0.16601,-0.24742 0.08438,-0.58923 -0.14655,-0.74417l-2.30101,-1.54386c-0.24742,-0.16601 -0.58359,-0.12844 -0.7828,0.16847l-3.41973,5.09686c-0.24901,0.37113 -0.32722,0.73726 0.04391,0.98627c0.37113,0.24901 0.67755,0.02404 0.92103,-0.33884l1.31698,-1.96287c0.02213,-0.03299 0.0497,-0.03842 0.08269,-0.01628l1.74844,1.17311c0.26392,0.17707 0.61397,0.10098 0.79658,-0.17118z" data-paper-data="{&quot;glyphName&quot;:&quot;F&quot;,&quot;glyphIndex&quot;:2,&quot;word&quot;:1}"></path>
            <path d="M231.35519,321.10645c0.15079,-0.27976 -0.07571,-0.71776 -0.20685,-0.78844l-3.19106,-1.71998c-0.25354,-0.13666 -0.6498,0.03336 -0.77232,0.26067c-0.13666,0.25354 -0.04129,0.62085 0.22099,0.76222l1.02289,0.55134c0.04371,0.02356 0.03832,0.0545 0.02418,0.08073l-2.71898,5.04449c-0.15079,0.27976 -0.02715,0.59462 0.26135,0.75013c0.27102,0.14608 0.61545,0.07223 0.76153,-0.19879l2.70484,-5.01826c0.04712,-0.08743 0.09487,-0.05041 0.10361,-0.0457l1.03163,0.55605c0.25354,0.13666 0.62153,0.01909 0.75819,-0.23444z" data-paper-data="{&quot;glyphName&quot;:&quot;T&quot;,&quot;glyphIndex&quot;:3,&quot;word&quot;:1}"></path>
            <path d="M238.74639,331.79971c0.33267,0.13102 0.54043,0.01003 0.70338,-0.21399l3.90773,-5.26045c0.0238,-0.03332 0.0476,-0.06665 0.06215,-0.10361c0.05823,-0.14785 0.00753,-0.31726 -0.12576,-0.41245l-0.06497,-0.07896c-0.03193,-0.10864 -0.12295,-0.22988 -0.26156,-0.28447c-0.17558,-0.06915 -0.39286,-0.00529 -0.51186,0.16133l-2.75699,3.85635c-0.01652,0.01484 -0.02016,0.02408 -0.0294,0.02044c-0.00924,-0.00364 0.28347,-2.18331 0.59155,-4.59176c0.03889,-0.31558 -0.02525,-0.58635 -0.35792,-0.71737c-0.26799,-0.10554 -0.51663,-0.04336 -0.67595,0.17143c-0.38274,0.51106 -2.71806,3.89303 -2.76426,3.87483c-0.05545,-0.02184 0.32964,-2.51738 0.56497,-4.38875l0.04981,-0.3433c0.02294,-0.19377 -0.10728,-0.40517 -0.27362,-0.47068c-0.14785,-0.05823 -0.28786,-0.02798 -0.3853,0.02972l-0.10136,0.01345c-0.16241,-0.02127 -0.30577,0.07171 -0.364,0.21956l-0.02548,0.06469c-0.00728,0.01848 -0.00168,0.03136 -0.00896,0.04984l-0.72887,6.51241c-0.02826,0.23438 0.02468,0.47939 0.35932,0.63253c0.33267,0.13102 0.53119,0.00639 0.70338,-0.21399l2.66375,-3.70093c0.06469,0.02548 -0.25264,2.43029 -0.48658,4.21681l-0.04253,0.32482c-0.00978,0.24166 0.03392,0.48303 0.35932,0.63253z" data-paper-data="{&quot;glyphName&quot;:&quot;W&quot;,&quot;glyphIndex&quot;:4,&quot;word&quot;:1}"></path>
            <path d="M251.04763,335.03634c0.02072,-0.07671 0.01966,-0.149 0.01602,-0.21171c-0.30645,-3.43649 -0.48872,-5.27574 -0.64187,-6.61332c-0.02002,-0.34489 -0.15559,-0.56668 -0.49118,-0.65731c-0.27806,-0.07509 -0.48767,0.05348 -0.61875,0.23411l-3.80994,5.3082c-0.07642,0.09252 -0.19015,0.24699 -0.21604,0.34287c-0.07768,0.28765 0.05299,0.64185 0.41734,0.74024c0.24929,0.06732 0.46331,-0.03948 0.63611,-0.26029l0.67795,-0.94854c0.01995,-0.03576 0.05389,-0.04717 0.10183,-0.03422l2.59841,0.70172c0.10288,0.03807 0.14992,0.74004 0.17148,1.00305l0.01715,0.24124c0.02156,0.26301 0.1693,0.4778 0.40901,0.54253c0.33559,0.09063 0.64962,-0.08175 0.73248,-0.38858zM249.4252,329.57788c0.00959,0.00259 0.01141,0.03394 0.00882,0.04353l0.23687,2.77987c0.007,0.01218 0.00441,0.02177 0.00182,0.03135c-0.00777,0.02876 -0.04171,0.04017 -0.06089,0.03499l-1.81217,-0.48939c-0.02876,-0.00777 -0.04276,-0.03212 -0.03758,-0.0513c0.00259,-0.00959 0.00777,-0.02876 0.01995,-0.03576l1.60407,-2.28271c0.01218,-0.007 0.01995,-0.03576 0.03912,-0.03058z" data-paper-data="{&quot;glyphName&quot;:&quot;A&quot;,&quot;glyphIndex&quot;:5,&quot;word&quot;:1}"></path>
            <path d="M260.97425,337.37179c0.18215,-0.07204 0.3079,-0.23333 0.33705,-0.41976c0.01227,-0.0785 0.00492,-0.16007 -0.02205,-0.24471l-0.94912,-2.48055c0.00153,-0.00981 -0.00674,-0.02116 -0.00521,-0.03097c0.00307,-0.01962 0.01442,-0.0279 0.03557,-0.03465c0.78689,-0.33937 1.28678,-0.96488 1.4264,-1.85782c0.22246,-1.42281 -0.58238,-2.383 -2.015,-2.607l-1.27562,-0.19945c-0.41212,-0.06444 -0.73904,0.22623 -0.80501,0.64816l-0.91594,5.85806c-0.06137,0.3925 0.00482,0.80494 0.43657,0.87245c0.42194,0.06597 0.64245,-0.25138 0.70995,-0.68313l0.32986,-2.10969c0.00614,-0.03925 0.02883,-0.05581 0.06808,-0.04967l0.7065,0.11047c0.05887,0.00921 0.07543,0.0319 0.08892,0.07422l0.97149,2.59463c0.11925,0.33027 0.22441,0.55781 0.52859,0.60537c0.12756,0.01995 0.24164,-0.00243 0.34897,-0.04596zM258.77721,330.78575c0.00767,-0.04906 0.0319,-0.07543 0.08096,-0.06776l0.82425,0.12888c0.93219,0.14575 1.06275,0.78941 0.98604,1.28004c-0.08745,0.55931 -0.40673,1.12259 -1.33891,0.97683l-0.82425,-0.12888c-0.04906,-0.00767 -0.06562,-0.03036 -0.05795,-0.07943z" data-paper-data="{&quot;glyphName&quot;:&quot;R&quot;,&quot;glyphIndex&quot;:6,&quot;word&quot;:1}"></path>
            <path d="M271.02246,337.7231c0.01811,-0.3173 -0.2349,-0.59038 -0.53237,-0.60736l-2.1021,-0.11996c-0.04958,-0.00283 -0.0578,-0.03314 -0.0561,-0.06289l0.10808,-1.89388c0.0017,-0.02975 0.02266,-0.04845 0.06232,-0.04618l2.1021,0.11996c0.3173,0.01811 0.5799,-0.22555 0.59857,-0.55276c0.01811,-0.3173 -0.2349,-0.59038 -0.53237,-0.60736l-2.1021,-0.11996c-0.03966,-0.00226 -0.05893,-0.01331 -0.05666,-0.05297l0.10638,-1.86413c0.0017,-0.02975 0.02266,-0.04845 0.06232,-0.04618l2.1021,0.11996c0.32721,0.01867 0.53911,-0.20798 0.55552,-0.49553c0.02433,-0.42637 -0.21167,-0.64874 -0.48931,-0.66459l-2.75653,-0.15731c-0.43629,-0.0249 -0.58669,0.34454 -0.61159,0.78082l-0.33329,5.84028c-0.0232,0.40654 0.07428,0.79012 0.5304,0.81615l2.64746,0.15109c0.35696,0.02037 0.67566,-0.1604 0.69716,-0.53719z" data-paper-data="{&quot;glyphName&quot;:&quot;E&quot;,&quot;glyphIndex&quot;:7,&quot;lastGlyphOfWord&quot;:true,&quot;word&quot;:1}"></path>
            <path d="M288.34896,336.93688c-0.03502,-0.31588 -0.33,-0.54298 -0.62614,-0.51015l-2.0927,0.23202c-0.04936,0.00547 -0.06251,-0.02305 -0.06579,-0.05266l-0.20903,-1.8854c-0.00328,-0.02961 0.01427,-0.05154 0.05376,-0.05592l2.0927,-0.23202c0.31588,-0.03502 0.53421,-0.31903 0.49809,-0.64478c-0.03502,-0.31588 -0.33,-0.54298 -0.62614,-0.51015l-2.0927,0.23202c-0.03948,0.00438 -0.06032,-0.0033 -0.0647,-0.04279l-0.20575,-1.85579c-0.00328,-0.02961 0.01427,-0.05154 0.05376,-0.05592l2.0927,-0.23202c0.32575,-0.03612 0.49691,-0.29491 0.46517,-0.58118c-0.04706,-0.42446 -0.31682,-0.6044 -0.59322,-0.57375l-2.7442,0.30425c-0.43433,0.04815 -0.52107,0.43749 -0.47292,0.87182l0.64461,5.81415c0.04487,0.40472 0.20491,0.76669 0.65899,0.71635l2.63562,-0.29221c0.35536,-0.0394 0.63948,-0.27075 0.5979,-0.64586z" data-paper-data="{&quot;glyphName&quot;:&quot;E&quot;,&quot;glyphIndex&quot;:8,&quot;firstGlyphOfWord&quot;:true,&quot;word&quot;:2}"></path>
            <path d="M293.39789,329.10027c-0.43668,0.09516 -0.68079,0.51428 -0.58563,0.95096l1.31316,6.02618c0.06767,0.31053 0.37072,0.48844 0.69095,0.41866c0.32023,-0.06978 0.50449,-0.34372 0.43471,-0.66396l-1.01712,-4.66762c-0.01057,-0.04852 0.0122,-0.08398 0.05101,-0.09243c0.01941,-0.00423 0.04093,0.00125 0.0688,0.03583l3.9364,4.16362c0.17267,0.186 0.46602,0.36603 0.84448,0.28356c0.4852,-0.10573 0.67992,-0.56492 0.59745,-0.94337l-1.31316,-6.02618c-0.06978,-0.32023 -0.37284,-0.49815 -0.69307,-0.42837c-0.32023,0.06978 -0.51208,0.35554 -0.44441,0.66607l1.02346,4.69673c0.01057,0.04852 -0.00249,0.08186 -0.04131,0.09032c-0.01941,0.00423 -0.04305,-0.01095 -0.07091,-0.04554l-3.95033,-4.18091c-0.17056,-0.17629 -0.47361,-0.35421 -0.84448,-0.28356z" data-paper-data="{&quot;glyphName&quot;:&quot;N&quot;,&quot;glyphIndex&quot;:9,&quot;word&quot;:2}"></path>
            <path d="M310.93194,328.49838c-0.15259,-0.44115 -0.47927,-0.44375 -0.96735,-0.27492l-1.93353,0.6688c-0.30035,0.10389 -0.44445,0.41646 -0.33732,0.7262c0.10389,0.30035 0.41357,0.46647 0.71392,0.36258l1.57686,-0.54543c0.01877,-0.00649 0.0314,-0.00035 0.04404,0.00579l0.26298,0.76027c0.11363,0.32851 -0.5323,0.98281 -1.48968,1.31397c-1.37975,0.47725 -2.89568,-0.25948 -3.37293,-1.63923c-0.47725,-1.37975 0.26273,-2.88629 1.64248,-3.36354c0.60071,-0.20778 1.24468,-0.19933 1.81894,0.0329c0.13571,0.05815 0.24905,0.082 0.46493,0.00733c0.26281,-0.09091 0.42858,-0.43199 0.32468,-0.73234c-0.07467,-0.21588 -0.26741,-0.31736 -0.41251,-0.37226c-0.49846,-0.1954 -1.44958,-0.42339 -2.5759,-0.0338c-1.98985,0.68828 -3.03969,2.84847 -2.35141,4.83832c0.68828,1.98985 2.84847,3.03969 4.83832,2.35141c1.22958,-0.42531 1.9954,-1.31024 2.23449,-1.83432c0.12568,-0.27467 0.13259,-0.49775 0.05467,-0.72302z" data-paper-data="{&quot;glyphName&quot;:&quot;G&quot;,&quot;glyphIndex&quot;:10,&quot;word&quot;:2}"></path>
            <path d="M317.94098,329.09332c0.29809,-0.13623 0.42072,-0.46526 0.29275,-0.74529l-2.66263,-5.82638c-0.13623,-0.29809 -0.46113,-0.41169 -0.75922,-0.27546c-0.28906,0.1321 -0.41246,0.48333 -0.28862,0.75432l2.66263,5.82638c0.1321,0.28906 0.46604,0.39853 0.7551,0.26643z" data-paper-data="{&quot;glyphName&quot;:&quot;I&quot;,&quot;glyphIndex&quot;:11,&quot;word&quot;:2}"></path>
            <path d="M320.64526,319.31687c-0.38808,0.22168 -0.49533,0.6947 -0.27365,1.08278l3.05912,5.35546c0.15764,0.27597 0.50009,0.35486 0.78467,0.1923c0.28459,-0.16256 0.37826,-0.47914 0.2157,-0.76373l-2.36947,-4.14811c-0.02463,-0.04312 -0.01354,-0.08377 0.02096,-0.10347c0.01725,-0.00985 0.03942,-0.01108 0.07637,0.01356l5.00344,2.79224c0.22049,0.12569 0.55431,0.20951 0.89064,0.01739c0.4312,-0.24631 0.47932,-0.74275 0.2872,-1.07908l-3.05912,-5.35546c-0.16256,-0.28459 -0.50501,-0.36348 -0.7896,-0.20092c-0.28459,0.16256 -0.38196,0.49269 -0.22432,0.76866l2.38425,4.17398c0.02463,0.04312 0.02216,0.07884 -0.01233,0.09855c-0.01725,0.00985 -0.04435,0.00246 -0.0813,-0.02219l-5.02191,-2.80456c-0.21556,-0.11706 -0.55801,-0.19596 -0.89064,-0.01739z" data-paper-data="{&quot;glyphName&quot;:&quot;N&quot;,&quot;glyphIndex&quot;:12,&quot;word&quot;:2}"></path>
            <path d="M336.48647,317.38611c-0.18535,-0.25817 -0.55378,-0.31154 -0.79581,-0.13777l-1.71037,1.22796c-0.04034,0.02896 -0.06578,0.01055 -0.08316,-0.01365l-1.10632,-1.54094c-0.01738,-0.0242 -0.01283,-0.05192 0.01945,-0.07509l1.71037,-1.22796c0.25817,-0.18535 0.30926,-0.53992 0.11812,-0.80616c-0.18535,-0.25817 -0.55378,-0.31154 -0.79581,-0.13777l-1.71037,1.22796c-0.03227,0.02317 -0.0542,0.02669 -0.07737,-0.00559l-1.08894,-1.51674c-0.01738,-0.0242 -0.01283,-0.05192 0.01945,-0.07509l1.71037,-1.22796c0.26624,-0.19114 0.28858,-0.50062 0.1206,-0.73458c-0.24907,-0.34691 -0.5724,-0.37153 -0.7983,-0.20935l-2.24284,1.61024c-0.35498,0.25486 -0.23976,0.63673 0.0151,0.99171l3.41163,4.75191c0.23748,0.33078 0.5544,0.56785 0.92552,0.3014l2.15409,-1.54653c0.29044,-0.20852 0.4247,-0.54944 0.20459,-0.85601z" data-paper-data="{&quot;glyphName&quot;:&quot;E&quot;,&quot;glyphIndex&quot;:13,&quot;word&quot;:2}"></path>
            <path d="M343.97253,311.22616c-0.20876,-0.23964 -0.58057,-0.25821 -0.80523,-0.0625l-1.58761,1.38301c-0.03744,0.03262 -0.0645,0.01668 -0.08407,-0.00579l-1.24601,-1.43035c-0.01957,-0.02247 -0.01764,-0.05049 0.01231,-0.07659l1.58761,-1.38301c0.23964,-0.20876 0.25724,-0.56655 0.04196,-0.81368c-0.20876,-0.23964 -0.58057,-0.25821 -0.80523,-0.0625l-1.58761,1.38301c-0.02995,0.02609 -0.05146,0.03165 -0.07755,0.0017l-1.22644,-1.40788c-0.01957,-0.02247 -0.01764,-0.05049 0.01231,-0.07659l1.58761,-1.38301c0.24713,-0.21528 0.24034,-0.52548 0.05115,-0.74266c-0.28052,-0.32202 -0.60473,-0.31619 -0.81442,-0.13353l-2.08187,1.81357c-0.3295,0.28704 -0.17896,0.65642 0.10808,0.98592l3.84241,4.41087c0.26747,0.30704 0.60523,0.51333 0.94971,0.21324l1.99949,-1.74181c0.26959,-0.23485 0.37127,-0.58686 0.12338,-0.87143z" data-paper-data="{&quot;glyphName&quot;:&quot;E&quot;,&quot;glyphIndex&quot;:14,&quot;word&quot;:2}"></path>
            <path d="M351.53498,304.41005c0.0437,-0.19095 -0.0181,-0.38589 -0.1553,-0.51544c-0.05777,-0.05455 -0.12918,-0.09465 -0.21422,-0.12032l-2.5822,-0.62146c-0.00722,-0.00682 -0.02126,-0.00642 -0.02848,-0.01323c-0.01444,-0.01364 -0.01485,-0.02768 -0.00843,-0.04894c0.16557,-0.8408 -0.06718,-1.60695 -0.72432,-2.22743c-1.04709,-0.98868 -2.29421,-0.86859 -3.28971,0.18572l-0.8864,0.93877c-0.28638,0.30329 -0.23177,0.73732 0.07875,1.03051l4.31111,4.07064c0.28885,0.27274 0.66634,0.4516 0.96636,0.13387c0.2932,-0.31052 0.15636,-0.67192 -0.16137,-0.97194l-1.55258,-1.46598c-0.02889,-0.02727 -0.02969,-0.05535 -0.00242,-0.08424l0.49093,-0.51993c0.04091,-0.04333 0.06899,-0.04413 0.11151,-0.0313l2.68891,0.66758c0.33977,0.08861 0.58688,0.1307 0.79825,-0.09316c0.08864,-0.09388 0.13476,-0.20058 0.15962,-0.31371zM344.86182,302.4938c-0.03611,-0.03409 -0.04413,-0.06899 -0.01004,-0.1051l0.57275,-0.60659c0.64776,-0.68602 1.2523,-0.42937 1.61337,-0.08844c0.41161,0.38865 0.69529,0.97067 0.04753,1.65669l-0.57275,0.60659c-0.03409,0.03611 -0.06217,0.03691 -0.09828,0.00282z" data-paper-data="{&quot;glyphName&quot;:&quot;R&quot;,&quot;glyphIndex&quot;:15,&quot;lastGlyphOfWord&quot;:true,&quot;word&quot;:2}"></path>
         </g>
         <g data-paper-data="{&quot;isContainerElementsWrapper&quot;:true}" fill-rule="evenodd">
            <path d="M183.78331,143.78331c-11.90077,11.90081 -21.11521,25.56828 -27.64331,41.00241c-6.76,15.98217 -10.14001,32.72033 -10.14001,50.21447c0,17.49389 3.38,34.23207 10.14001,50.21456c6.52797,15.4341 15.7424,29.10164 27.64331,41.0026c11.90107,11.90096 25.56854,21.11515 41.00241,27.64254c15.98205,6.76007 32.7202,10.1401 50.21447,10.1401c17.49325,0 34.23144,-3.38003 50.21456,-10.1401c15.43474,-6.52803 29.10227,-15.74221 41.0026,-27.64254c11.90096,-11.9016 21.11515,-25.56913 27.64254,-41.0026c6.76007,-15.98186 10.1401,-32.72004 10.1401,-50.21456c0,-17.49427 -3.38003,-34.23242 -10.1401,-50.21447c-6.52803,-15.43375 -15.74221,-29.10119 -27.64254,-41.00232c-11.90033,-11.90077 -25.56786,-21.11524 -41.0026,-27.6434c-15.98249,-6.76 -32.72068,-10.14001 -50.21456,-10.14001c-17.49401,0 -34.23217,3.38 -50.21447,10.14001c-15.43398,6.52791 -29.10145,15.74234 -41.00241,27.64331zM147.40723,235.00019c0,-17.30376 3.34291,-33.8592 10.02874,-49.66633c6.45665,-15.26541 15.57079,-28.78389 27.34242,-40.55546c11.77142,-11.77151 25.2899,-20.88565 40.55546,-27.34242c15.80694,-6.68583 32.36239,-10.02874 49.66633,-10.02874c17.30369,0 33.8593,3.34291 49.66681,10.02874c15.26547,6.45671 28.78402,15.57082 40.55565,27.34233c11.771,11.77172 20.88501,25.29023 27.34204,40.55555c6.68526,15.80682 10.02789,32.36226 10.02789,49.66633c0,17.30306 -3.34263,33.85866 -10.02789,49.66681c-6.45766,15.26547 -15.57168,28.78402 -27.34204,40.55565c-11.77227,11.771 -25.29082,20.88501 -40.55565,27.34204c-15.80688,6.68526 -32.36248,10.02789 -49.66681,10.02789c-17.30401,0 -33.85945,-3.34263 -49.66633,-10.02789c-15.26595,-6.45766 -28.78444,-15.57168 -40.55546,-27.34204c-11.77138,-11.771 -20.88552,-25.28955 -27.34242,-40.55565c-6.68583,-15.80751 -10.02874,-32.36312 -10.02874,-49.66681z" data-paper-data="{&quot;isAdditionalOutlinePath&quot;:true}"></path>
            <path d="M186.73063,146.73063c-11.51773,11.51771 -20.43502,24.74396 -26.75187,39.67877c-6.54033,15.46333 -9.8105,31.66026 -9.8105,48.5908c0,16.93028 3.27017,33.12706 9.8105,48.59032c6.31705,14.93517 15.23434,28.16177 26.75187,39.67981c11.51928,11.51868 24.74557,20.43553 39.67886,26.75054c15.46409,6.54135 31.66099,9.81202 48.5907,9.81202c16.93028,0 33.12706,-3.27067 48.59032,-9.81202c14.93643,-6.31692 28.16304,-15.23377 39.67981,-26.75054c11.51741,-11.51868 20.43426,-24.74528 26.75054,-39.67981c6.54135,-15.46327 9.81202,-31.66004 9.81202,-48.59032c0,-16.93035 -3.27067,-33.12728 -9.81202,-48.5908c-6.31692,-14.93539 -15.23377,-28.16165 -26.75054,-39.67877c-11.51804,-11.51779 -24.74465,-20.43508 -39.67981,-26.75187c-15.46327,-6.54033 -31.66004,-9.8105 -48.59032,-9.8105c-16.93041,0 -33.12734,3.27017 -48.5908,9.8105c-14.93475,6.31686 -28.161,15.23415 -39.67877,26.75187zM152.63067,235.00019c0,-16.59751 3.20537,-32.47466 9.61612,-47.63147c6.19215,-14.63997 14.93383,-27.6056 26.22504,-38.89689c11.2914,-11.29127 24.25703,-20.03295 38.89689,-26.22504c15.15668,-6.41075 31.03383,-9.61612 47.63147,-9.61612c16.59808,0 32.47533,3.20537 47.63175,9.61612c14.64037,6.19222 27.60577,14.9339 38.89622,26.22504c11.29108,11.29076 20.03295,24.25639 26.22561,38.89689c6.41075,15.15642 9.61612,31.03358 9.61612,47.63147c0,16.59745 -3.20537,32.4747 -9.61612,47.63175c-6.19139,14.63847 -14.93326,27.60387 -26.22561,38.89622c-11.29045,11.29108 -24.25585,20.03295 -38.89622,26.22561c-15.15706,6.41075 -31.03431,9.61612 -47.63175,9.61612c-16.59637,0 -32.47356,-3.20537 -47.63156,-9.61612c-14.63899,-6.19139 -27.60459,-14.93326 -38.89679,-26.22561c-11.29133,-11.29108 -20.03302,-24.25649 -26.22504,-38.89622c-6.41075,-15.15769 -9.61612,-31.03494 -9.61612,-47.63175z" data-paper-data="{&quot;isBaseLogoContainer&quot;:true}"></path>
         </g>
      </g>
   </g>
</svg>