<svg version="1.1" xmlns="http://www.w3.org/2000/svg" xmlns:xlink="http://www.w3.org/1999/xlink" viewBox="0 0 550 470">
  <path fill="currentColor" d="M0,100c0,-55.22847 44.77153,-100 100,-100c55.22847,0 100,44.77153 100,100c0,55.22847 -44.77153,100 -100,100c-55.22847,0 -100,-44.77153 -100,-100zM108.08777,46.0815v8.08777h-16.17555v-8.08777c0,-7.43267 -6.04696,-13.47962 -13.47962,-13.47962h-32.3511c-7.43267,0 -13.47962,6.04696 -13.47962,13.47962v32.3511c0,7.43267 6.04696,13.47962 13.47962,13.47962h8.08777v16.17555h-8.08777c-7.43267,0 -13.47962,6.04696 -13.47962,13.47962v32.3511c0,7.43267 6.04696,13.47962 13.47962,13.47962h32.3511c7.43267,0 13.47962,-6.04696 13.47962,-13.47962v-8.08777h16.17555v8.08777c0,7.43267 6.04696,13.47962 13.47962,13.47962h32.3511c7.43267,0 13.47962,-6.04696 13.47962,-13.47962v-32.3511c0,-7.43267 -6.04696,-13.47962 -13.47962,-13.47962h-8.08777v-16.17555h8.08777c7.43267,0 13.47962,-6.04696 13.47962,-13.47962v-32.3511c0,-7.43267 -6.04696,-13.47962 -13.47962,-13.47962h-32.3511c-7.43267,0 -13.47962,6.04696 -13.47962,13.47962zM46.0815,37.99373h32.3511c4.45906,0 8.08777,3.62872 8.08777,8.08777v8.08777h-13.49041c-2.52878,-3.35643 -6.51875,-5.39185 -10.77292,-5.39185c-7.43267,0 -13.47962,6.04696 -13.47962,13.47962c0,7.43267 6.04696,13.47962 13.47962,13.47962c4.25147,0 8.24414,-2.03542 10.77292,-5.39185h13.49041v8.08777c0,4.45906 -3.62872,8.08777 -8.08777,8.08777h-10.7837c-1.48815,0 -2.69592,1.20508 -2.69592,2.69592v39.09091c0,0.09975 0.04583,0.18332 0.05661,0.27768c0.01887,0.25881 0.05931,0.50683 0.15097,0.74947c0.00809,0.01887 0.01887,0.03505 0.02696,0.05661c0.21567,0.53918 0.56884,1.02984 1.11342,1.34527c2.49373,1.44232 4.04389,4.12746 4.04389,7.0094c0,4.45906 -3.62872,8.08777 -8.08777,8.08777c-4.45906,0 -8.08777,-3.62872 -8.08777,-8.08777c0,-2.87925 1.55016,-5.56439 4.04389,-7.0094c0.54188,-0.31273 0.89505,-0.80339 1.11342,-1.34527c0.00809,-0.01887 0.01887,-0.03505 0.02696,-0.05661c0.09166,-0.24263 0.1321,-0.49066 0.15097,-0.74947c0.01078,-0.09436 0.05661,-0.17793 0.05661,-0.27768v-39.09091c0,-1.49085 -1.20777,-2.69592 -2.69592,-2.69592h-10.7837c-4.45906,0 -8.08777,-3.62872 -8.08777,-8.08777v-32.3511c0,-4.45906 3.62872,-8.08777 8.08777,-8.08777zM145.83072,86.52038v-13.4931c3.35643,-2.52608 5.39185,-6.51875 5.39185,-10.77022c0,-7.43267 -6.04696,-13.47962 -13.47962,-13.47962c-7.43267,0 -13.47962,6.04696 -13.47962,13.47962c0,4.25147 2.03542,8.24414 5.39185,10.77022v13.4931h-8.08777c-4.45906,0 -8.08777,-3.62872 -8.08777,-8.08777v-32.3511c0,-4.45906 3.62872,-8.08777 8.08777,-8.08777h32.3511c4.45906,0 8.08777,3.62872 8.08777,8.08777v32.3511c0,4.45906 -3.62872,8.08777 -8.08777,8.08777zM71.4205,65.00689c-0.2642,0.01887 -0.51492,0.05931 -0.76025,0.15367c-0.01348,0.00539 -0.02696,0.01348 -0.04044,0.01887c-0.54458,0.21567 -1.03793,0.57154 -1.35335,1.11611c-1.44502,2.49912 -4.13016,4.04928 -7.0094,4.04928c-4.45906,0 -8.08777,-3.62872 -8.08777,-8.08777c0,-4.45906 3.62872,-8.08777 8.08777,-8.08777c2.87925,0 5.56439,1.55016 7.00671,4.04658c0.31542,0.54458 0.80878,0.90044 1.35335,1.11611c0.01618,0.00809 0.02966,0.01618 0.04583,0.02157c0.24533,0.09166 0.49605,0.1348 0.76025,0.15367c0.09166,0.00809 0.17254,0.05392 0.26959,0.05392h36.39499v5.39185h-36.39499c-0.09705,0 -0.17793,0.04583 -0.27229,0.05392zM121.5674,162.00627c-4.45906,0 -8.08777,-3.62872 -8.08777,-8.08777v-8.08777h13.49041c2.52878,3.35643 6.51875,5.39185 10.77292,5.39185c7.43267,0 13.47962,-6.04696 13.47962,-13.47962c0,-7.43267 -6.04696,-13.47962 -13.47962,-13.47962c-4.25147,0 -8.24414,2.03542 -10.77292,5.39185h-13.49041v-10.7837c0,-2.97361 2.41824,-5.39185 5.39185,-5.39185h13.47962c1.48815,0 2.69592,-1.20508 2.69592,-2.69592v-39.09091c0,-0.09975 -0.04583,-0.18332 -0.05661,-0.27768c-0.01887,-0.25881 -0.05931,-0.50683 -0.15097,-0.74947c-0.00809,-0.01887 -0.01887,-0.03774 -0.02696,-0.05661c-0.21567,-0.53918 -0.56884,-1.02984 -1.11072,-1.34257c-2.49643,-1.44502 -4.04658,-4.13016 -4.04658,-7.0094c0,-4.45906 3.62872,-8.08777 8.08777,-8.08777c4.45906,0 8.08777,3.62872 8.08777,8.08777c0,2.87925 -1.55016,5.56439 -4.04389,7.0094c-0.54188,0.31273 -0.89505,0.80339 -1.11072,1.34257c-0.00809,0.01887 -0.01887,0.03505 -0.02696,0.05661c-0.09166,0.24263 -0.1321,0.49066 -0.15097,0.74947c-0.01348,0.09436 -0.05931,0.17793 -0.05931,0.27768v39.09091c0,1.49085 1.20777,2.69592 2.69592,2.69592h10.7837c4.45906,0 8.08777,3.62872 8.08777,8.08777v32.3511c0,4.45906 -3.62872,8.08777 -8.08777,8.08777zM91.91223,129.65517v-8.08777c0,-7.43267 -6.04696,-13.47962 -13.47962,-13.47962h-8.08777v-16.17555h8.08777c7.43267,0 13.47962,-6.04696 13.47962,-13.47962v-8.08777h16.17555v8.08777c0,7.43267 6.04696,13.47962 13.47962,13.47962h8.08777v16.17555h-10.7837c-5.94721,0 -10.7837,4.83649 -10.7837,10.7837v10.7837zM46.0815,162.00627c-4.45906,0 -8.08777,-3.62872 -8.08777,-8.08777v-32.3511c0,-4.45906 3.62872,-8.08777 8.08777,-8.08777h8.08777v13.4931c-3.35643,2.52608 -5.39185,6.51875 -5.39185,10.77022c0,7.43267 6.04696,13.47962 13.47962,13.47962c7.43267,0 13.47962,-6.04696 13.47962,-13.47962c0,-4.25147 -2.03542,-8.24414 -5.39185,-10.77022v-13.4931h8.08777c4.45906,0 8.08777,3.62872 8.08777,8.08777v10.7837c0,1.49085 1.20777,2.69592 2.69592,2.69592h39.09091c0.09436,0 0.17524,-0.04583 0.26959,-0.05392c0.2642,-0.01887 0.51492,-0.05931 0.76295,-0.15367c0.01348,-0.00539 0.02696,-0.01348 0.04044,-0.01887c0.54458,-0.21567 1.03793,-0.57154 1.35335,-1.11611c1.44502,-2.49912 4.13016,-4.04928 7.0094,-4.04928c4.45906,0 8.08777,3.62872 8.08777,8.08777c0,4.45906 -3.62872,8.08777 -8.08777,8.08777c-2.87925,0 -5.56439,-1.55016 -7.00671,-4.04658c-0.31542,-0.54458 -0.80878,-0.89774 -1.35066,-1.11342c-0.01618,-0.00809 -0.02966,-0.01618 -0.04853,-0.02426c-0.24803,-0.09436 -0.49605,-0.1348 -0.76025,-0.15367c-0.09436,-0.00809 -0.17524,-0.05392 -0.26959,-0.05392h-39.09091c-1.48815,0 -2.69592,1.20508 -2.69592,2.69592v10.7837c0,4.45906 -3.62872,8.08777 -8.08777,8.08777z"></path>
</svg>